<svg width="18" height="14" viewBox="0 0 18 14" fill="none" xmlns="http://www.w3.org/2000/svg">
<path d="M12.3475 13.2188L11.4051 13.4496C10.7895 13.5983 10.153 13.7174 9.51864 13.7471L8.22801 13.7212C7.47346 13.6663 6.957 13.5392 6.22467 13.3612L5.3202 13.1291C5.04272 13.059 4.63102 13.0534 4.55286 12.7103C4.53329 12.6244 4.55301 12.5041 4.55448 12.4154L4.59692 10.9444C4.60284 10.8304 4.62188 10.718 4.62534 10.6035L4.6659 9.52159L4.71254 7.61811C4.71585 7.45897 4.73854 7.30116 4.74641 7.14235L4.71864 5.94913C4.68421 5.51272 4.63801 5.10743 4.4471 4.70421C4.39919 4.73143 4.35587 4.7671 4.30917 4.79651C4.03286 4.97063 3.69831 5.04458 3.41005 5.19897C3.13221 5.3478 2.90618 5.61628 2.57881 5.65425L2.56446 5.65581C2.19182 5.70038 1.87046 5.32844 1.66311 5.06911C1.2402 4.5401 0.653063 3.47579 1.09854 2.80864C1.24415 2.59061 1.53637 2.46352 1.75538 2.3313L2.64579 1.79766L3.37372 1.28796C4.0861 0.742507 4.28946 0.584128 5.24024 0.435828L6.43307 0.262C6.53907 0.245203 6.64333 0.237039 6.74901 0.2153C7.16528 0.168816 7.41512 0.461316 7.51508 0.837898C7.69532 1.51684 8.53229 1.85962 9.19553 1.80848C9.73909 1.76657 10.2419 1.39337 10.4659 0.900515C10.5066 0.811042 10.5192 0.715281 10.5539 0.624832C10.7029 0.237371 11.0225 0.18696 11.371 0.24032L12.7427 0.43362C13.6716 0.580827 13.9307 0.745125 14.6937 1.33634L16.1059 2.24903C16.4214 2.4326 16.8133 2.58944 16.9748 2.94262C17.2376 3.51772 16.8547 4.34372 16.5308 4.81051C16.3001 5.14301 15.9694 5.57948 15.5459 5.65167C15.2803 5.69696 15.0587 5.50323 14.8597 5.35893C14.4485 5.06085 13.9384 4.98518 13.5407 4.70376C13.3813 5.02676 13.2841 5.65053 13.26 6.0002C13.2439 6.23364 13.2471 6.46835 13.2469 6.70221L13.2541 7.40096L13.2973 8.48438C13.2989 8.57428 13.3149 8.66343 13.3177 8.75331L13.3782 10.9014L13.4168 11.6289C13.42 11.7177 13.4378 11.8046 13.4424 11.8926L13.4456 12.2948C13.4505 12.5745 13.5228 12.9116 13.1668 13.0152L12.3475 13.2188ZM6.83182 0.813484C6.81901 0.871081 6.83434 0.93405 6.8461 0.991003L6.89407 1.20594C6.8979 1.22497 6.90393 1.23966 6.91046 1.25782L6.9335 1.33286C6.95745 1.4161 7.00889 1.51641 7.04622 1.59473C7.50338 2.55385 8.39264 3.35977 9.5303 3.01399C10.1405 2.82856 10.5763 2.29819 10.8627 1.75413L11.0236 1.39202C11.0611 1.28466 11.1819 0.935671 11.1504 0.823249L11.1324 0.812507C11.0854 0.85491 11.0676 0.980554 11.0438 1.0426C10.3294 2.90696 7.59135 2.84503 6.90936 0.932117C6.89569 0.893757 6.88485 0.842683 6.85725 0.812624L6.83182 0.813484ZM11.75 0.884656C11.7159 1.06253 11.6934 1.2393 11.6416 1.41372C11.2576 2.70575 10.0415 3.93372 8.60557 3.65057L8.55053 3.63835C8.44479 3.61313 8.33956 3.59489 8.23639 3.5585C7.13526 3.17012 6.38495 2.02444 6.24579 0.896648L5.42499 1.01014C4.55012 1.13596 4.4185 1.22676 3.69594 1.78018L3.18602 2.14764L1.71733 3.0421C1.63745 3.08934 1.58917 3.10257 1.55665 3.19141L1.55188 3.20387C1.3593 3.72567 2.12446 4.81262 2.51825 5.08301C2.69973 4.95741 2.86692 4.82167 3.06251 4.71606C3.37219 4.54882 3.70526 4.44116 4.01942 4.28602C4.13706 4.22794 4.23921 4.14928 4.35163 4.08278L4.59565 2.78305C4.6296 2.54895 4.67692 2.2318 4.99133 2.28243C5.08786 2.29798 5.16239 2.38333 5.19772 2.47001L5.20219 2.48057C5.25741 2.62397 5.167 2.9235 5.14219 3.07104L4.92067 4.18257C4.90245 4.25714 4.91936 4.26645 4.94557 4.33887L5.22536 5.22864C5.30563 5.48837 5.32495 6.13532 5.32782 6.4319L5.31962 7.69987C5.31614 7.80477 5.29358 7.90653 5.29077 8.01212L5.27422 8.91059L5.21694 10.3301C5.19608 10.7268 5.19471 11.1431 5.16169 11.5307L5.13143 12.4773C5.18065 12.5103 5.23014 12.5104 5.28579 12.5225L5.94825 12.6855C6.64684 12.8626 7.3328 13.0376 8.05028 13.1115L8.26364 13.139C9.04499 13.2085 9.9528 13.1559 10.7139 13.0066L12.7296 12.5164C12.7777 12.5046 12.8272 12.4994 12.8722 12.4778L12.8009 10.9567L12.7926 10.4393L12.7157 8.91895L12.71 8.06831C12.7069 7.90554 12.6829 7.74698 12.6756 7.58563L12.6705 6.64934C12.6715 5.86216 12.6982 5.22247 13.0014 4.46639L13.0649 4.31862C13.0932 4.256 13.0947 4.25118 13.081 4.18518L12.8195 2.89333C12.6618 2.09587 13.2451 2.17647 13.3465 2.50782L13.3515 2.52266C13.3921 2.64704 13.3908 2.79005 13.4171 2.91764L13.6324 3.96956C13.6845 4.26591 14.2586 4.40143 14.5162 4.51272C14.8635 4.66278 15.1739 4.84989 15.4754 5.07782C15.9238 4.71825 16.6938 3.73438 16.4121 3.11591C16.2856 3.02653 16.1416 2.95565 16.0078 2.87669L14.247 1.74112C14.1702 1.68553 14.1012 1.6188 14.026 1.56098C13.5788 1.21743 13.2437 1.10505 12.7025 1.02606L12.2031 0.945086C12.0538 0.924968 11.8975 0.91407 11.75 0.884656Z" fill="#292526"/>
</svg>
